HIERARCHY
ROOT Hips
{
	OFFSET 0.000000 0.000000 0.000000
	CHANNELS 6 Xposition Yposition Zposition Zrotation Yrotation Xrotation 
	JOINT LeftUpLeg_virtual
	{
		OFFSET 0.000000 0.000000 0.000000
		CHANNELS 3 Zrotation Yrotation Xrotation
		JOINT LeftUpLeg
		{
			OFFSET 10.205400 -3.823500 0.155100
			CHANNELS 3 Zrotation Yrotation Xrotation
			JOINT LeftLeg
			{
				OFFSET 0.708757 -12.982077 0.567790
				CHANNELS 3 Zrotation Yrotation Xrotation
				JOINT LeftFoot
				{
					OFFSET -0.708756 -10.717838 -2.184338
					CHANNELS 3 Zrotation Yrotation Xrotation
					JOINT LeftToeBase
					{
						OFFSET 0.108149 -7.191104 7.560241
						CHANNELS 3 Zrotation Yrotation Xrotation
						End Site
						{
							OFFSET 0.000000 0.000000 0.000000
						}
					}
				}
			}
		}
	}
	JOINT RightUpLeg_virtual
	{
		OFFSET 0.000000 0.000000 0.000000
		CHANNELS 3 Zrotation Yrotation Xrotation
		JOINT RightUpLeg
		{
			OFFSET -10.205400 -3.823500 0.005500
			CHANNELS 3 Zrotation Yrotation Xrotation
			JOINT RightLeg
			{
				OFFSET -0.708756 -12.982134 0.610632
				CHANNELS 3 Zrotation Yrotation Xrotation
				JOINT RightFoot
				{
					OFFSET 0.708754 -10.717769 -1.945823
					CHANNELS 3 Zrotation Yrotation Xrotation
					JOINT RightToeBase
					{
						OFFSET -0.108140 -7.191069 7.372968
						CHANNELS 3 Zrotation Yrotation Xrotation
						End Site
						{
							OFFSET 0.000000 0.000000 0.000000
						}
					}
				}
			}
		}
	}
	JOINT Spine_virtual
	{
		OFFSET 0.000000 0.000000 0.000000
		CHANNELS 3 Zrotation Yrotation Xrotation
		JOINT Spine
		{
			OFFSET 0.000000 6.876099 0.125700
			CHANNELS 3 Zrotation Yrotation Xrotation
			JOINT Spine1
			{
				OFFSET 0.000000 8.022060 0.146608
				CHANNELS 3 Zrotation Yrotation Xrotation
				JOINT Spine2
				{
					OFFSET 0.000000 9.168068 0.167552
					CHANNELS 3 Zrotation Yrotation Xrotation
					JOINT Neck_virtual
					{
						OFFSET 0.000000 0.000000 0.000000
						CHANNELS 3 Zrotation Yrotation Xrotation
						JOINT Neck
						{
							OFFSET 0.000000 10.314075 0.188496
							CHANNELS 3 Zrotation Yrotation Xrotation
							JOINT Head
							{
								OFFSET 0.000000 7.643700 -2.377400
								CHANNELS 3 Zrotation Yrotation Xrotation
								End Site
								{
									OFFSET 0.000000 0.000000 0.000000
								}
							}
						}
					}
					JOINT LeftShoulder_virtual
					{
						OFFSET 0.000000 0.000000 0.000000
						CHANNELS 3 Zrotation Yrotation Xrotation
						JOINT LeftShoulder
						{
							OFFSET 4.392200 8.824978 0.174984
							CHANNELS 3 Zrotation Yrotation Xrotation
							JOINT LeftArm
							{
								OFFSET 8.771219 -2.981674 -0.026999
								CHANNELS 3 Zrotation Yrotation Xrotation
								JOINT LeftForeArm
								{
									OFFSET 8.512804 0.000000 -0.000000
									CHANNELS 3 Zrotation Yrotation Xrotation
									JOINT LeftHand
									{
										OFFSET 18.484802 0.000000 -0.000000
										CHANNELS 3 Zrotation Yrotation Xrotation
										End Site
										{
											OFFSET 0.000000 0.000000 0.000000
										}
									}
								}
							}
						}
					}
					JOINT RightShoulder_virtual
					{
						OFFSET 0.000000 0.000000 0.000000
						CHANNELS 3 Zrotation Yrotation Xrotation
						JOINT RightShoulder
						{
							OFFSET -4.392200 8.824993 0.141379
							CHANNELS 3 Zrotation Yrotation Xrotation
							JOINT RightArm
							{
								OFFSET -8.771282 -2.981682 -0.094208
								CHANNELS 3 Zrotation Yrotation Xrotation
								JOINT RightForeArm
								{
									OFFSET -8.494598 0.000000 0.000000
									CHANNELS 3 Zrotation Yrotation Xrotation
									JOINT RightHand
									{
										OFFSET -18.483803 0.000000 0.000001
										CHANNELS 3 Zrotation Yrotation Xrotation
										End Site
										{
											OFFSET 0.000000 0.000000 0.000000
										}
									}
								}
							}
						}
					}
				}
			}
		}
	}
}
MOTION
Frames: 4
Frame Time: 0.033333
23.672400 35.680614 -65.814232 179.465051 -67.413161 -179.541604 -1.566246 -5.837196 6.912712 14.052627 -17.557660 -32.504290 6.848433 9.616746 25.308195 -7.317702 2.167089 18.162021 0.000000 0.000000 0.000000 2.745190 -5.473989 6.168204 8.122669 3.630039 -9.777794 -4.524842 -1.982110 13.417691 4.413220 8.580806 9.375950 0.000000 0.000000 0.000000 0.873137 -1.820897 -5.816213 2.044059 3.785007 -11.165630 -2.267159 -2.801216 8.900922 0.037846 0.030491 0.049901 -2.551661 -0.976816 10.941145 -2.661729 -4.114819 21.183161 0.000000 0.000000 0.000000 -0.489148 -0.411653 7.775208 -11.150005 -4.664326 3.563580 -52.966809 34.051054 10.051922 -2.493347 -43.942357 4.076772 0.000000 0.000000 0.000000 -5.061797 0.665024 6.967439 28.653344 5.256576 -0.409932 50.824209 -6.169840 10.648269 -5.721795 33.411564 -4.974545 0.000000 0.000000 0.000000 
23.788038 35.686604 -65.665359 179.162856 -67.506974 -179.291796 -1.670609 -5.578364 7.164746 14.677930 -17.486857 -32.258522 7.027406 9.684947 25.666802 -7.098231 2.371651 18.232649 0.000000 0.000000 0.000000 2.937637 -5.393227 6.072566 8.514043 3.269234 -10.166772 -4.458926 -2.250338 13.375214 4.285054 8.333035 9.934724 0.000000 0.000000 0.000000 0.719824 -1.811799 -5.731870 1.977344 3.749157 -11.156575 -2.319728 -2.798118 8.918689 0.081798 0.058342 0.025621 -2.538338 -1.068234 10.961819 -2.531603 -4.010767 21.096267 0.000000 0.000000 0.000000 -0.544646 -0.352358 7.801230 -11.149961 -4.657448 3.522904 -52.796884 33.764835 9.691297 -2.566053 -44.001271 4.146884 0.000000 0.000000 0.000000 -5.070510 0.699196 7.118553 28.924851 5.228456 -0.561640 50.960601 -6.713618 11.198116 -5.696497 32.992184 -4.876278 0.000000 0.000000 0.000000 
23.939445 35.698956 -65.454712 179.219861 -67.848415 -179.254148 -1.555944 -5.598064 7.451085 15.488123 -16.539354 -31.847833 7.484339 9.912178 26.412664 -6.926891 2.565396 18.131314 0.000000 0.000000 0.000000 2.895276 -5.182559 6.098138 8.629740 2.399944 -10.643357 -4.436334 -1.801058 13.264393 4.138621 8.163249 9.968619 0.000000 0.000000 0.000000 0.612946 -1.827210 -5.691022 1.982324 3.722702 -11.164690 -2.404318 -2.921704 8.884090 0.054699 0.077219 0.038560 -2.660175 -1.003070 10.927688 -2.600664 -3.958244 21.064428 0.000000 0.000000 0.000000 -0.635709 -0.356127 7.752446 -11.109858 -4.798719 3.652857 -52.138252 33.304354 9.622407 -2.627348 -44.542102 4.236763 0.000000 0.000000 0.000000 -5.136949 0.701991 7.063715 29.075931 5.184294 -0.452800 51.344602 -7.872541 12.358864 -5.550188 32.175221 -4.808239 0.000000 0.000000 0.000000 
24.101627 35.732853 -65.255905 179.361560 -67.930767 -179.533995 -1.524962 -5.425447 7.732971 16.326894 -15.152988 -31.125613 8.086975 10.209761 27.229029 -6.552855 2.881009 18.108129 0.000000 0.000000 0.000000 2.925353 -5.006454 6.153578 8.620604 1.583335 -11.004561 -4.451123 -1.297759 13.388223 4.200508 8.144263 10.012998 0.000000 0.000000 0.000000 0.501132 -1.952983 -5.538291 2.005084 3.689954 -11.068014 -2.412355 -2.882153 8.820208 0.042400 0.148614 0.017057 -2.692507 -0.916117 10.795795 -2.528067 -3.848955 21.048512 0.000000 0.000000 0.000000 -0.701015 -0.315615 7.607216 -11.049410 -4.778995 3.743039 -51.408542 32.719017 9.360404 -3.002470 -45.350325 4.589286 0.000000 0.000000 0.000000 -5.201445 0.728531 6.983210 29.373864 5.211296 -0.410839 51.801299 -9.394938 13.511706 -5.318059 31.151776 -4.572730 0.000000 0.000000 0.000000 
